<?xml version="1.0" encoding="utf-8"?>
<!-- Generator: Adobe Adobe Illustrator 24.2.0, SVG Export Plug-In . SVG Version: 6.00 Build 0)  -->
<svg version="1.1" id="Layer_1" xmlns="http://www.w3.org/2000/svg" xmlns:xlink="http://www.w3.org/1999/xlink" x="0px" y="0px"
	 width="800px" height="800px" viewBox="0 0 800 800" style="enable-background:new 0 0 800 800;" xml:space="preserve">
<style type="text/css">
	.st0{fill:#FFFFFF;}
</style>
<g id="Layer_2">
	<rect x="194.8" y="237" width="358.5" height="358.5"/>
</g>
<path class="st0" d="M400,71.2c-59.3,0-114.8,15-166.3,44.9c-49.5,29.4-88.7,68.9-117.6,118.4c-29.9,51.1-44.9,106.4-44.9,166
	s15,114.9,44.9,166c28.9,49.5,68.1,88.7,117.6,117.6c51.6,29.9,107,44.9,166.3,44.9s114.8-15,166.3-44.9
	c49.5-28.9,88.7-68.1,117.6-117.6c29.9-51.1,44.9-106.4,44.9-166s-15-114.9-44.9-166c-28.9-49.5-68.1-89-117.6-118.4
	C514.8,86.1,459.3,71.2,400,71.2z M347.4,271.6H434c18.6,0,35.7,4.5,51.5,13.5c15.7,9,28.2,21.1,37.5,36.4
	c9.3,15.2,13.9,32,13.9,50.3c0,18.3-4.6,35.1-13.9,50.3c-9.3,15.2-21.8,27.3-37.5,36.4c-15.7,9-32.9,13.5-51.5,13.5h-60.3l-85.9,82
	V329.6c0-16,5.8-29.7,17.4-41S330.9,271.6,347.4,271.6z"/>
</svg>
