<?xml version="1.0" encoding="utf-8"?>
<!-- Generator: Adobe Adobe Illustrator 24.2.0, SVG Export Plug-In . SVG Version: 6.00 Build 0)  -->
<svg version="1.1" id="Layer_1" xmlns="http://www.w3.org/2000/svg" xmlns:xlink="http://www.w3.org/1999/xlink" x="0px" y="0px"
	 width="800px" height="800px" viewBox="0 0 800 800" style="enable-background:new 0 0 800 800;" xml:space="preserve">
<style type="text/css">
	.st0{fill:#FFFFFF;}
</style>
<ellipse cx="379.3" cy="407" rx="353.5" ry="311"/>
<path class="st0" d="M452.5,303.2C452.5,303.2,452.5,303.2,452.5,303.2c0-39.1,31.7-70.8,70.8-70.8s70.8,31.7,70.8,70.8
	c0,39.1-31.7,70.8-70.8,70.8c0,0,0,0,0,0l0,0c0,0,0,0,0,0C484.2,374,452.5,342.3,452.5,303.2C452.5,303.2,452.5,303.2,452.5,303.2
	L452.5,303.2L452.5,303.2z M617.3,303.4c0-52-42.2-94.2-94.2-94.2s-94.2,42.2-94.2,94.2s42.2,94.2,94.2,94.2l0,0
	C575.1,397.5,617.2,355.4,617.3,303.4L617.3,303.4L617.3,303.4z M260.7,594l-46-19c13.1,27,40.3,45.2,71.7,45.2
	c32.9,0,61.2-20,73.2-48.6l0.2-0.5c3.9-9,6.2-19.6,6.2-30.7c0-43.9-35.6-79.5-79.5-79.5c-10.1,0-19.8,1.9-28.7,5.3l0.6-0.2
	l47.6,19.7c21.3,9.1,36,29.9,36,54.1c0,32.4-26.3,58.7-58.7,58.7c-8.1,0-15.8-1.7-22.8-4.6L260.7,594L260.7,594z M399.4,25.1
	c-196.4,0-357.5,151.1-373.5,343.4l-0.1,1.4l201,83.1c16.7-11.6,37.4-18.4,59.7-18.4c0,0,0,0,0,0l0,0c2,0,3.9,0.1,5.9,0.2
	l89.4-129.4v-1.9c0.1-78,63.3-141.2,141.3-141.2c78,0,141.3,63.3,141.3,141.3s-63.3,141.3-141.3,141.3h-3.3l-127.4,91
	c0,1.6,0.1,3.3,0.1,5c0,0,0,0,0,0.1c0,58.5-47.5,106-106,106c-51.2,0-93.9-36.3-103.8-84.5l-0.1-0.7L38.7,502.2
	c46,158.6,190,272.6,360.6,272.6c207,0,374.9-167.8,374.9-374.9S606.4,25.1,399.4,25.1L399.4,25.1L399.4,25.1L399.4,25.1z"/>
</svg>
