<?xml version="1.0" encoding="utf-8"?>
<!-- Generator: Adobe Adobe Illustrator 24.2.0, SVG Export Plug-In . SVG Version: 6.00 Build 0)  -->
<svg version="1.1" id="Layer_1" xmlns="http://www.w3.org/2000/svg" xmlns:xlink="http://www.w3.org/1999/xlink" x="0px" y="0px"
	 width="881px" height="881px" viewBox="0 0 881 881" style="enable-background:new 0 0 881 881;" xml:space="preserve">
<style type="text/css">
	.st0{fill:#FFFFFF;}
</style>
<ellipse class="st0" cx="434.7" cy="440.5" rx="412.8" ry="405"/>
<ellipse cx="448.5" cy="438.5" rx="353" ry="349"/>
<g transform="translate(0.000000,881.000000) scale(0.100000,-0.100000)">
	<path class="st0" d="M3832.6,8437.3c-623.7-86.5-1199.2-305.6-1728.3-658.2C1426,7327.1,888.5,6664.3,589.2,5910.4
		c-110.3-276.2-188.1-558.8-236.3-854.3c-18.5-111.4-19.5-147.3-16.7-676.6l3.7-558.8l25-128.9c13.9-70.9,41.7-193.3,62.1-271.6
		c274.3-1089,999.9-2020.6,2001.7-2568.4c1058.3-579,2349.2-656.4,3470.5-209C7044.6,1100.4,7912,2023.8,8284.5,3184.6
		c200.2,622.3,243.7,1307.2,125.1,1957.1C8214.1,6214.2,7581.2,7175.2,6673,7779.1c-536.6,357.2-1114.8,575.4-1741.3,659.1
		c-115.8,15.6-187.2,17.5-556,16.6C4022.6,8453.9,3933.7,8451.1,3832.6,8437.3z M3740,7305.9c274.3-55.2,507.8-178.6,708-375.6
		c58.4-57.1,111.2-104,117.7-104c7.4,0,19.5,11,27.8,25.8c89,143.6,192.8,239.3,342.9,313.9c116.8,58.9,199.2,77.3,346.6,78.2
		c101,0,139.9-3.7,200.2-20.3c365.1-97.6,606.1-407.8,606.1-781.6c0-110.5,0-110.5-73.2-57.1c-132.5,95.7-283.6,128.9-440.2,95.7
		c-104.7-22.1-108.4-40.5-9.3-46.9c146.4-11,270.6-58.9,373.5-144.5c146.4-123.4,228.9-305.6,221.5-494.3
		c-3.7-101.3,13-105.9,46.3-13.8c19.5,54.3,23.2,81.9,23.2,170.3c0,93-2.8,114.1-25.9,174.9c-13.9,37.7-41.7,93-61.2,123.4
		c-20.4,29.5-36.1,57.1-36.1,60.8c0,4.6,40.8,14.7,90.8,24.9c123.3,23,398.5,23,514.3,0c594-118.8,1035.1-586.4,1113.9-1182.9
		c28.7-215.4,8.3-406-66.7-623.2c-115.8-334.2-380-628.7-702.4-782.5c-78.8-36.8-217.8-91.1-217.8-83.8c0,1.8,6.5,19.3,14.8,38.7
		c45.4,106.8,27.8,235.7-44.5,337.8c-27.8,38.7-34.3,22.1-14.8-36.8c27.8-81.9,20.4-198.8-17.6-279.9
		c-44.5-95.7-127.9-169.4-237.2-209.9c-43.6-16.6-20.4-25.8,41.7-17.5c75.1,10.1,146.4,44.2,198.3,96.7
		c49.1,49.7,44.5,52.5,104.7-67.2c101.9-202.5,121.4-441.9,54.7-656.4c-107.5-347.1-420.7-591.9-795.1-622.3
		c-243.7-19.3-529.2,91.1-699.7,272.5c-24.1,25.8-50,45.1-57.5,43.3c-10.2-1.8-21.3-31.3-36.1-99.4
		c-127-566.1-573.6-983.2-1150-1073.4c-122.3-18.4-367-13.8-475.4,10.1c-176.1,38.7-354.9,114.1-507.8,214.5
		c-164,106.8-360.5,327.7-450.4,505.4c-65.8,130.7-135.3,338.8-135.3,406.9c0,20.3,0.9,21.2,21.3,6.4
		c36.1-25.8,128.8-70.9,172.4-84.7c116.8-35,268.7-22.1,388.3,33.1c48.2,22.1,57.5,30.4,49.1,40.5s-19.5,11-50,3.7
		c-21.3-4.6-76.9-9.2-123.3-9.2c-295.6,0-544,207.1-602.4,501.7c-15.8,79.2-32.4,102.2-44.5,59.8c-10.2-39.6-5.6-196.1,8.3-246.7
		c18.5-70.9,63-155.6,106.6-204.4c20.4-23.9,37.1-45.1,37.1-49.7c0-11-193.7,5.5-290.1,24.9c-498.6,100.3-896.1,472.2-1024.9,959.2
		c-48.2,181.4-56.5,414.3-21.3,582.7c88,412.4,341,742.9,710.8,926.1c90.8,45.1,228,94.8,288.2,104.9l38,5.5l5.6-55.2
		c5.6-70.9,39.8-144.5,89.9-198.8c40.8-44.2,99.2-84.7,108.4-76.4c2.8,2.8-10.2,23.9-28.7,46c-131.6,159.3-124.2,373.7,18.5,522
		c40.8,43.3,49.1,55.2,34.3,55.2c-52.8,0-163.1-105.9-198.3-189.6c-12-27.6-24.1-49.7-27.8-49.7c-12,0-110.3,208-137.2,291.8
		c-157.5,483.3-40.8,1007.1,303,1367c231.7,241.2,530.1,390.3,859.1,429.9C3429.5,7335.4,3630.6,7327.1,3740,7305.9z"/>
	<path class="st0" d="M4622.2,6131.3c-47.3-17.5-81.6-42.3-165-119.7c-72.3-67.2-120.5-96.7-158.5-96.7c-20.4,0-94.5,33.1-165,73.6
		c-51.9,29.5-95.5,19.3-124.2-28.5c-25-42.3-12-77.3,53.7-141.8c107.5-106.8,222.4-138.1,312.3-84.7c22.2,12.9,80.6,58,128.8,101.3
		c137.2,120.6,159.4,127,240.9,75.5c111.2-70,153.8-81.9,192.8-54.3c43.6,30.4,14.8,128.9-57.5,195.2
		C4793.6,6131.3,4699.1,6160.8,4622.2,6131.3z"/>
	<path class="st0" d="M4949.3,5558.7c-21.3-8.3-55.6-41.4-70.4-69c-8.3-16.6-13-55.2-13-115.1c0-91.1,33.4-494.3,59.3-716.2
		c35.2-298.3,61.2-711.6,61.2-957.4c0-162.9-4.6-200.7-22.2-195.2c-14.8,4.6-63.9,98.5-111.2,213.6c-23.2,56.2-88,210.8-144.6,345.2
		c-161.2,381.1-321.6,772.4-384.6,939c-73.2,194.2-107.5,262.4-159.4,321.3c-51,58-100.1,84.7-171.4,90.2
		c-103.8,10.1-169.6-35.9-208.5-147.3c-15.8-45.1-16.7-104.9-14.8-1064.2l1.9-1015.4l25.9-52.5c14.8-30.4,38.9-59.8,56.5-71.8
		c62.1-40.5,187.2-35,249.3,12c17.6,12.9,42.6,45.1,56.5,70.9l25,47.9L4182,3968l-2.8,773.3l23.2-41.4c12-23,39.8-82.9,61.2-133.5
		c21.3-50.6,86.2-199.8,144.6-332.3c57.5-131.6,142.7-334.2,189-450.2c190.9-478.7,386.4-756.7,485.6-692.3
		c51,33.1,84.3,162,100.1,379.3c13,183.2,13,853.4,0,1141.5c-5.6,127-15.8,362.7-21.3,524.7c-13.9,400.4-23.2,429-141.8,427.1
		C4989.2,5564.2,4956.7,5561.5,4949.3,5558.7z"/>
</g>
</svg>
