<svg xmlns="http://www.w3.org/2000/svg" xml:space="preserve" id="Layer_1" x="0" y="0" style="enable-background:new 0 0 881 881" version="1.1" viewBox="0 0 881 881"><style>.st0{fill:#fff}</style><ellipse cx="434.7" cy="440.5" class="st0" rx="412.8" ry="405"/><ellipse cx="448.5" cy="438.5" rx="353" ry="349"/><path d="M383.26 37.27c-62.37 8.65-119.92 30.56-172.83 65.82-67.83 45.2-121.58 111.48-151.51 186.87-11.03 27.62-18.81 55.88-23.63 85.43-1.85 11.14-1.95 14.73-1.67 67.66l.37 55.88 2.5 12.89c1.39 7.09 4.17 19.33 6.21 27.16 27.43 108.9 99.99 202.06 200.17 256.84 105.83 57.9 234.92 65.64 347.05 20.9 114.54-45.76 201.28-138.1 238.53-254.18 20.02-62.23 24.37-130.72 12.51-195.71-19.55-107.25-82.84-203.35-173.66-263.74-53.66-35.72-111.48-57.54-174.13-65.91-11.58-1.56-18.72-1.75-55.6-1.66-35.31.09-44.2.37-54.31 1.75zM374 150.41c27.43 5.52 50.78 17.86 70.8 37.56 5.84 5.71 11.12 10.4 11.77 10.4.74 0 1.95-1.1 2.78-2.58 8.9-14.36 19.28-23.93 34.29-31.39 11.68-5.89 19.92-7.73 34.66-7.82 10.1 0 13.99.37 20.02 2.03 36.51 9.76 60.61 40.78 60.61 78.16 0 11.05 0 11.05-7.32 5.71-13.25-9.57-28.36-12.89-44.02-9.57-10.47 2.21-10.84 4.05-.93 4.69 14.64 1.1 27.06 5.89 37.35 14.45 14.64 12.34 22.89 30.56 22.15 49.43-.37 10.13 1.3 10.59 4.63 1.38 1.95-5.43 2.32-8.19 2.32-17.03 0-9.3-.28-11.41-2.59-17.49-1.39-3.77-4.17-9.3-6.12-12.34-2.04-2.95-3.61-5.71-3.61-6.08 0-.46 4.08-1.47 9.08-2.49 12.33-2.3 39.85-2.3 51.43 0 59.4 11.88 103.51 58.64 111.39 118.29 2.87 21.54.83 40.6-6.67 62.32-11.58 33.42-38 62.87-70.24 78.25-7.88 3.68-21.78 9.11-21.78 8.38 0-.18.65-1.93 1.48-3.87 4.54-10.68 2.78-23.57-4.45-33.78-2.78-3.87-3.43-2.21-1.48 3.68 2.78 8.19 2.04 19.88-1.76 27.99-4.45 9.57-12.79 16.94-23.72 20.99-4.36 1.66-2.04 2.58 4.17 1.75 7.51-1.01 14.64-4.42 19.83-9.67 4.91-4.97 4.45-5.25 10.47 6.72 10.19 20.25 12.14 44.19 5.47 65.64-10.75 34.71-42.07 59.19-79.51 62.23-24.37 1.93-52.92-9.11-69.97-27.25-2.41-2.58-5-4.51-5.75-4.33-1.02.18-2.13 3.13-3.61 9.94-12.7 56.61-57.36 98.32-115 107.34-12.23 1.84-36.7 1.38-47.54-1.01-17.61-3.87-35.49-11.41-50.78-21.45-16.4-10.68-36.05-32.77-45.04-50.54-6.58-13.07-13.53-33.88-13.53-40.69 0-2.03.09-2.12 2.13-.64 3.61 2.58 12.88 7.09 17.24 8.47 11.68 3.5 26.87 2.21 38.83-3.31 4.82-2.21 5.75-3.04 4.91-4.05s-1.95-1.1-5-.37c-2.13.46-7.69.92-12.33.92-29.56 0-54.4-20.71-60.24-50.17-1.58-7.92-3.24-10.22-4.45-5.98-1.02 3.96-.56 19.61.83 24.67 1.85 7.09 6.3 15.56 10.66 20.44 2.04 2.39 3.71 4.51 3.71 4.97 0 1.1-19.37-.55-29.01-2.49-49.86-10.03-89.61-47.22-102.49-95.92-4.82-18.14-5.65-41.43-2.13-58.27 8.8-41.24 34.1-74.29 71.08-92.61 9.08-4.51 22.8-9.48 28.82-10.49l3.8-.55.56 5.52c.56 7.09 3.98 14.45 8.99 19.88 4.08 4.42 9.92 8.47 10.84 7.64.28-.28-1.02-2.39-2.87-4.6-13.16-15.93-12.42-37.37 1.85-52.2 4.08-4.33 4.91-5.52 3.43-5.52-5.28 0-16.31 10.59-19.83 18.96-1.2 2.76-2.41 4.97-2.78 4.97-1.2 0-11.03-20.8-13.72-29.18-15.75-48.33-4.08-100.71 30.3-136.7 23.17-24.12 53.01-39.03 85.91-42.99 10.63-1.3 30.74-.47 41.68 1.65z" class="st0"/><path d="M462.22 267.87c-4.73 1.75-8.16 4.23-16.5 11.97-7.23 6.72-12.05 9.67-15.85 9.67-2.04 0-9.45-3.31-16.5-7.36-5.19-2.95-9.55-1.93-12.42 2.85-2.5 4.23-1.2 7.73 5.37 14.18 10.75 10.68 22.24 13.81 31.23 8.47 2.22-1.29 8.06-5.8 12.88-10.13 13.72-12.06 15.94-12.7 24.09-7.55 11.12 7 15.38 8.19 19.28 5.43 4.36-3.04 1.48-12.89-5.75-19.52-8.69-8.01-18.14-10.96-25.83-8.01zM494.93 325.13c-2.13.83-5.56 4.14-7.04 6.9-.83 1.66-1.3 5.52-1.3 11.51 0 9.11 3.34 49.43 5.93 71.62 3.52 29.83 6.12 71.16 6.12 95.74 0 16.29-.46 20.07-2.22 19.52-1.48-.46-6.39-9.85-11.12-21.36-2.32-5.62-8.8-21.08-14.46-34.52-16.12-38.11-32.16-77.24-38.46-93.9-7.32-19.42-10.75-26.24-15.94-32.13-5.1-5.8-10.01-8.47-17.14-9.02-10.38-1.01-16.96 3.59-20.85 14.73-1.58 4.51-1.67 10.49-1.48 106.42l.19 101.54 2.59 5.25c1.48 3.04 3.89 5.98 5.65 7.18 6.21 4.05 18.72 3.5 24.93-1.2 1.76-1.29 4.26-4.51 5.65-7.09l2.5-4.79-.28-77.33-.28-77.33 2.32 4.14c1.2 2.3 3.98 8.29 6.12 13.35 2.13 5.06 8.62 19.98 14.46 33.23 5.75 13.16 14.27 33.42 18.9 45.02 19.09 47.87 38.64 75.67 48.56 69.23 5.1-3.31 8.43-16.2 10.01-37.93 1.3-18.32 1.3-85.34 0-114.15-.56-12.7-1.58-36.27-2.13-52.47-1.39-40.04-2.32-42.9-14.18-42.71-3.06 0-6.31.27-7.05.55z" class="st0"/></svg>