<?xml version="1.0" encoding="utf-8"?>
<!-- Generator: Adobe Adobe Illustrator 24.2.0, SVG Export Plug-In . SVG Version: 6.00 Build 0)  -->
<svg version="1.1" id="Layer_1" xmlns="http://www.w3.org/2000/svg" xmlns:xlink="http://www.w3.org/1999/xlink" x="0px" y="0px"
	 width="800px" height="800px" viewBox="0 0 800 800" style="enable-background:new 0 0 800 800;" xml:space="preserve">
<style type="text/css">
	.st0{fill:#FFFFFF;}
</style>
<g>
	<ellipse class="st0" cx="400" cy="400" rx="391" ry="391"/>
	<ellipse cx="413.1" cy="398.1" rx="334.4" ry="336.9"/>
	<path class="st0" d="M351.3,10.7c-59.1,8.4-113.6,29.5-163.7,63.5C123.3,117.9,72.4,181.9,44.1,254.7
		c-10.4,26.7-17.8,53.9-22.4,82.5c-1.8,10.8-1.8,14.2-1.6,65.3l0.4,53.9l2.4,12.4c1.3,6.8,3.9,18.7,5.9,26.2
		c26,105.1,94.7,195.1,189.6,248c100.2,55.9,222.5,63.4,328.7,20.2C655.5,719,737.7,629.9,773,517.8c19-60.1,23.1-126.2,11.8-188.9
		c-18.5-103.5-78.5-196.3-164.5-254.6c-50.8-34.5-105.6-55.6-164.9-63.6c-11-1.5-17.7-1.7-52.7-1.6C369.3,9.1,360.9,9.4,351.3,10.7
		L351.3,10.7z M342.5,119.9c26,5.3,48.1,17.2,67.1,36.3c5.5,5.5,10.5,10,11.1,10c0.7,0,1.8-1.1,2.6-2.5
		c8.4-13.9,18.3-23.1,32.5-30.3c11.1-5.7,18.9-7.5,32.8-7.5c9.6,0,13.3,0.4,19,2c34.6,9.4,57.4,39.4,57.4,75.5
		c0,10.7,0,10.7-6.9,5.5c-12.6-9.2-26.9-12.4-41.7-9.2c-9.9,2.1-10.3,3.9-0.9,4.5c13.9,1.1,25.6,5.7,35.4,14
		c13.9,11.9,21.7,29.5,21,47.7c-0.4,9.8,1.2,10.2,4.4,1.3c1.8-5.2,2.2-7.9,2.2-16.4c0-9-0.3-11-2.5-16.9c-1.3-3.6-3.9-9-5.8-11.9
		c-1.9-2.8-3.4-5.5-3.4-5.9c0-0.4,3.9-1.4,8.6-2.4c11.7-2.2,37.7-2.2,48.7,0c56.3,11.5,98,56.6,105.5,114.2
		c2.7,20.8,0.8,39.2-6.3,60.2c-11,32.3-36,60.7-66.5,75.5c-7.5,3.6-20.6,8.8-20.6,8.1c0-0.2,0.6-1.9,1.4-3.7
		c4.3-10.3,2.6-22.8-4.2-32.6c-2.6-3.7-3.2-2.1-1.4,3.6c2.6,7.9,1.9,19.2-1.7,27c-4.2,9.2-12.1,16.4-22.5,20.3
		c-4.1,1.6-1.9,2.5,3.9,1.7c7.1-1,13.9-4.3,18.8-9.3c4.7-4.8,4.2-5.1,9.9,6.5c9.7,19.5,11.5,42.7,5.2,63.4
		c-10.2,33.5-39.8,57.1-75.3,60.1c-23.1,1.9-50.1-8.8-66.3-26.3c-2.3-2.5-4.7-4.4-5.4-4.2c-1,0.2-2,3-3.4,9.6
		c-12,54.7-54.3,94.9-108.9,103.6c-11.6,1.8-34.8,1.3-45-1c-16.7-3.7-33.6-11-48.1-20.7c-15.5-10.3-34.1-31.6-42.7-48.8
		c-6.2-12.6-12.8-32.7-12.8-39.3c0-2,0.1-2,2-0.6c3.4,2.5,12.2,6.8,16.3,8.2c11.1,3.4,25.5,2.1,36.8-3.2c4.6-2.1,5.4-2.9,4.7-3.9
		c-0.8-1-1.8-1.1-4.7-0.4c-2,0.4-7.3,0.9-11.7,0.9c-28,0-51.5-20-57.1-48.4c-1.5-7.6-3.1-9.9-4.2-5.8c-1,3.8-0.5,18.9,0.8,23.8
		c1.8,6.8,6,15,10.1,19.7c1.9,2.3,3.5,4.4,3.5,4.8c0,1.1-18.3-0.5-27.5-2.4c-47.2-9.7-84.9-45.6-97.1-92.6c-4.6-17.5-5.4-40-2-56.3
		c8.3-39.8,32.3-71.7,67.3-89.4c8.6-4.4,21.6-9.2,27.3-10.1l3.6-0.5l0.5,5.3c0.5,6.8,3.8,14,8.5,19.2c3.9,4.3,9.4,8.2,10.3,7.4
		c0.3-0.3-1-2.3-2.7-4.4c-12.5-15.4-11.8-36.1,1.8-50.4c3.9-4.2,4.7-5.3,3.2-5.3c-5,0-15.4,10.2-18.8,18.3c-1.1,2.7-2.3,4.8-2.6,4.8
		c-1.1,0-10.4-20.1-13-28.2c-14.9-46.7-3.9-97.2,28.7-132c21.9-23.3,50.2-37.7,81.4-41.5C313.1,117.1,332.1,117.9,342.5,119.9
		L342.5,119.9z"/>
	<path class="st0" d="M426.1,233.3c-4.5,1.7-7.7,4.1-15.6,11.6c-6.8,6.5-11.4,9.3-15,9.3c-1.9,0-9-3.2-15.6-7.1
		c-4.9-2.8-9-1.9-11.8,2.8c-2.4,4.1-1.1,7.5,5.1,13.7c10.2,10.3,21.1,13.3,29.6,8.2c2.1-1.2,7.6-5.6,12.2-9.8
		c13-11.6,15.1-12.3,22.8-7.3c10.5,6.8,14.6,7.9,18.3,5.2c4.1-2.9,1.4-12.4-5.4-18.8C442.3,233.3,433.4,230.5,426.1,233.3
		L426.1,233.3z M457,288.6c-2,0.8-5.3,4-6.7,6.7c-0.8,1.6-1.2,5.3-1.2,11.1c0,8.8,3.2,47.7,5.6,69.1c3.3,28.8,5.8,68.7,5.8,92.4
		c0,15.7-0.4,19.4-2.1,18.8c-1.4-0.4-6.1-9.5-10.5-20.6c-2.2-5.4-8.3-20.4-13.7-33.3c-15.3-36.8-30.5-74.6-36.4-90.7
		c-6.9-18.7-10.2-25.3-15.1-31c-4.8-5.6-9.5-8.2-16.2-8.7c-9.8-1-16.1,3.5-19.7,14.2c-1.5,4.4-1.6,10.1-1.4,102.7l0.2,98l2.5,5.1
		c1.4,2.9,3.7,5.8,5.4,6.9c5.9,3.9,17.7,3.4,23.6-1.2c1.7-1.2,4-4.4,5.4-6.8l2.4-4.6l-0.3-74.7l-0.3-74.7l2.2,4
		c1.1,2.2,3.8,8,5.8,12.9c2,4.9,8.2,19.3,13.7,32.1c5.4,12.7,13.5,32.3,17.9,43.5c18.1,46.2,36.6,73.1,46,66.8
		c4.8-3.2,8-15.6,9.5-36.6c1.2-17.7,1.2-82.4,0-110.2c-0.5-12.3-1.5-35-2-50.7c-1.3-38.7-2.2-41.4-13.4-41.2
		C460.8,288.1,457.8,288.3,457,288.6L457,288.6z"/>
</g>
</svg>
